<svg width="25" height="24" viewBox="0 0 25 24" fill="none" xmlns="http://www.w3.org/2000/svg">
<g clip-path="url(#clip0_170_765)">
<path d="M15.5 7L9.33447 8.76158C9.02956 8.8487 8.87711 8.89226 8.75117 8.97414C8.63969 9.04662 8.54379 9.1406 8.46907 9.2506C8.38466 9.37485 8.33803 9.5264 8.24477 9.82948L4.5 22M4.5 22L16.6705 18.2552C16.9736 18.162 17.1251 18.1153 17.2494 18.0309C17.3594 17.9562 17.4534 17.8603 17.5259 17.7488C17.6077 17.6229 17.6513 17.4704 17.7384 17.1655L19.5 11M4.5 22L11.086 15.4139M5.5 8V2M2.5 5H8.5M22.3686 7.86863L18.6314 4.13137C18.2354 3.73535 18.0373 3.53735 17.809 3.46316C17.6082 3.3979 17.3918 3.3979 17.191 3.46316C16.9627 3.53735 16.7646 3.73535 16.3686 4.13137L15.6314 4.86863C15.2354 5.26465 15.0373 5.46265 14.9632 5.69098C14.8979 5.89183 14.8979 6.10817 14.9632 6.30902C15.0373 6.53735 15.2354 6.73535 15.6314 7.13137L19.3686 10.8686C19.7646 11.2646 19.9627 11.4627 20.191 11.5368C20.3918 11.6021 20.6082 11.6021 20.809 11.5368C21.0373 11.4627 21.2354 11.2646 21.6314 10.8686L22.3686 10.1314C22.7646 9.73535 22.9627 9.53735 23.0368 9.30902C23.1021 9.10817 23.1021 8.89183 23.0368 8.69098C22.9627 8.46265 22.7646 8.26465 22.3686 7.86863ZM12.5 12C13.6046 12 14.5 12.8954 14.5 14C14.5 15.1046 13.6046 16 12.5 16C11.3954 16 10.5 15.1046 10.5 14C10.5 12.8954 11.3954 12 12.5 12Z" stroke="#C9DBFF" stroke-width="2" stroke-linecap="round" stroke-linejoin="round"/>
</g>
<defs>
<clipPath id="clip0_170_765">
<rect width="24" height="24" fill="white" transform="translate(0.5)"/>
</clipPath>
</defs>
</svg>
